<?xml version="1.0" encoding="UTF-8"?>
<svg width="70px" height="71px" viewBox="0 0 70 71" version="1.1" xmlns="http://www.w3.org/2000/svg" xmlns:xlink="http://www.w3.org/1999/xlink">
    <title>logo</title>
    <defs>
        <polygon id="path-1" points="0 0 34.3052792 0 34.3052792 44.3536112 0 44.3536112"></polygon>
        <polygon id="path-3" points="2.37412847e-15 0 32.8435322 0 32.8435322 45.2183857 2.37412847e-15 45.2183857"></polygon>
        <polygon id="path-5" points="0 0 28.8540334 0 28.8540334 44.3538786 0 44.3538786"></polygon>
    </defs>
    <g id="Pasta-Web" stroke="none" stroke-width="1" fill="none" fill-rule="evenodd">
        <g id="Desktop-HD" transform="translate(-31.000000, -16.000000)">
            <g id="logo" transform="translate(31.000000, 16.000000)">
                <g id="Group-12" transform="translate(0.000000, -0.000000)">
                    <g id="Group-3" transform="translate(0.000000, 19.397737)">
                        <mask id="mask-2" fill="white">
                            <use xlink:href="#path-1"></use>
                        </mask>
                        <g id="Clip-2"></g>
                        <path d="M6.78107876,37.9704022 L9.70671122,37.9704022 C13.0306253,37.9704022 17.6175465,37.7043794 21.4747303,34.8449691 C24.5326778,32.5176043 27.5237995,28.2612404 27.5237995,22.210894 C27.5237995,16.3583936 24.7318186,11.7705038 21.5402196,9.44313903 C17.6843723,6.65056861 12.9637995,6.38454587 9.70671122,6.38454587 L6.78107876,6.38454587 L6.78107876,37.9704022 Z M9.30709308,0 C15.4911504,0 20.8759714,0.66572526 25.795685,4.3232038 C31.180506,8.37904805 34.3052792,14.829097 34.3052792,22.210894 C34.3052792,29.5913541 31.2473317,35.9759 25.3960668,40.0985841 C20.2103866,43.7560627 15.3574988,44.3536112 9.17477804,44.3536112 L-0.000400954654,44.3536112 L-0.000400954654,0 L9.30709308,0 Z" id="Fill-1" fill="#E0E0BB" mask="url(#mask-2)"></path>
                    </g>
                    <g id="Group-6" transform="translate(11.102301, 25.781614)">
                        <mask id="mask-4" fill="white">
                            <use xlink:href="#path-3"></use>
                        </mask>
                        <g id="Clip-5"></g>
                        <path d="M6.78147971,0 L6.78147971,26.7319438 C6.78147971,29.1261485 6.84830549,32.0523987 8.17813842,34.3797635 C9.50797136,36.6402884 12.4990931,38.9676533 16.4217661,38.9676533 C20.3444391,38.9676533 23.3355609,36.6402884 24.6653938,34.3797635 C25.9952267,32.0523987 26.0620525,29.1261485 26.0620525,26.7319438 L26.0620525,0 L32.8435322,0 L32.8435322,28.5272631 C32.8435322,32.0523987 32.1124582,36.3074258 28.7217184,40.0317442 C26.3935084,42.5582919 22.4721718,45.2185194 16.4217661,45.2185194 C10.3713604,45.2185194 6.44868735,42.5582919 4.12181384,40.0317442 C0.732410501,36.3074258 2.37412847e-15,32.0523987 2.37412847e-15,28.5272631 L2.37412847e-15,0 L6.78147971,0 Z" id="Fill-4" fill="#E0E0BB" mask="url(#mask-4)"></path>
                    </g>
                    <g id="Group-9" transform="translate(37.157136, 0.000000)">
                        <mask id="mask-6" fill="white">
                            <use xlink:href="#path-5"></use>
                        </mask>
                        <g id="Clip-8"></g>
                        <path d="M6.78147971,20.3476653 L8.90921241,20.3476653 C10.7709785,20.3476653 18.3490215,20.1484825 18.3490215,13.0995481 C18.3490215,6.84868203 12.4336038,6.25113345 9.10835322,6.25113345 L6.78147971,6.25113345 L6.78147971,20.3476653 Z M7.91217184,-0.00106943817 C13.2969928,-0.00106943817 16.7545585,0.664655822 19.6133652,2.59231812 C24.466253,5.85143094 24.8645346,11.1037091 24.8645346,13.0327082 C24.8645346,19.4172541 20.9431981,24.0719837 15.0251074,25.4020975 L28.8540334,44.3538786 L20.675895,44.3538786 L7.97899761,26.1988289 L6.78147971,26.1988289 L6.78147971,44.3538786 L0,44.3538786 L0,-0.00106943817 L7.91217184,-0.00106943817 Z" id="Fill-7" fill="#E0E0BB" mask="url(#mask-6)"></path>
                    </g>
                    <path d="M43.939284,4.75913353 L43.939284,31.4910773 C43.939284,33.885282 44.0061098,36.8115322 45.3346062,39.138897 C46.6644391,41.399422 49.6555609,43.7267868 53.5795704,43.7267868 C57.5009069,43.7267868 60.4933652,41.399422 61.8231981,39.138897 C63.153031,36.8115322 63.2198568,33.885282 63.2198568,31.4910773 L63.2198568,4.75913353 L70,4.75913353 L70,33.2863967 C70,36.8115322 69.268926,41.0665593 65.8781862,44.7908778 C63.5513126,47.3174254 59.6286396,49.9776529 53.5795704,49.9776529 C47.5291647,49.9776529 43.6064916,47.3174254 41.2796181,44.7908778 C37.8888783,41.0665593 37.1578043,36.8115322 37.1578043,33.2863967 L37.1578043,4.75913353 L43.939284,4.75913353 Z" id="Fill-10" fill="#E0E0BB"></path>
                </g>
            </g>
        </g>
    </g>
</svg>